<mxfile host="65bd71144e">
    <diagram id="69F-PSq4uRbfpSGgnILf" name="Page-1">
        <mxGraphModel dx="1072" dy="726" grid="1" gridSize="10" guides="1" tooltips="1" connect="1" arrows="1" fold="1" page="1" pageScale="1" pageWidth="1169" pageHeight="827" math="0" shadow="0">
            <root>
                <mxCell id="0"/>
                <mxCell id="1" parent="0"/>
                <mxCell id="2" value="RP2040 MCU" style="rounded=0;whiteSpace=wrap;html=1;" vertex="1" parent="1">
                    <mxGeometry x="525" y="384" width="120" height="60" as="geometry"/>
                </mxCell>
                <mxCell id="3" value="CAN Interface&lt;br&gt;(MCP2515 + TJA1043?)" style="rounded=0;whiteSpace=wrap;html=1;" vertex="1" parent="1">
                    <mxGeometry x="70" y="204" width="120" height="60" as="geometry"/>
                </mxCell>
                <mxCell id="4" value="SPI&lt;br&gt;(Buffered/Level shifter)" style="rounded=0;whiteSpace=wrap;html=1;" vertex="1" parent="1">
                    <mxGeometry x="70" y="324" width="120" height="60" as="geometry"/>
                </mxCell>
                <mxCell id="5" value="I2C&lt;br&gt;(Buffered/Level shifter)" style="rounded=0;whiteSpace=wrap;html=1;" vertex="1" parent="1">
                    <mxGeometry x="70" y="444" width="120" height="60" as="geometry"/>
                </mxCell>
                <mxCell id="6" value="UART/RS232&lt;br&gt;(Buffered/MAX232)" style="rounded=0;whiteSpace=wrap;html=1;" vertex="1" parent="1">
                    <mxGeometry x="70" y="564" width="120" height="60" as="geometry"/>
                </mxCell>
                <mxCell id="7" value="" style="endArrow=classic;startArrow=classic;html=1;entryX=1;entryY=0.5;entryDx=0;entryDy=0;exitX=0;exitY=0.5;exitDx=0;exitDy=0;" edge="1" parent="1" source="2" target="3">
                    <mxGeometry width="50" height="50" relative="1" as="geometry">
                        <mxPoint x="560" y="420" as="sourcePoint"/>
                        <mxPoint x="610" y="370" as="targetPoint"/>
                        <Array as="points">
                            <mxPoint x="320" y="414"/>
                            <mxPoint x="320" y="234"/>
                        </Array>
                    </mxGeometry>
                </mxCell>
                <mxCell id="8" value="" style="endArrow=classic;startArrow=classic;html=1;entryX=1;entryY=0.5;entryDx=0;entryDy=0;exitX=0;exitY=0.5;exitDx=0;exitDy=0;" edge="1" parent="1" source="2" target="4">
                    <mxGeometry width="50" height="50" relative="1" as="geometry">
                        <mxPoint x="560" y="420" as="sourcePoint"/>
                        <mxPoint x="610" y="370" as="targetPoint"/>
                        <Array as="points">
                            <mxPoint x="320" y="414"/>
                            <mxPoint x="320" y="354"/>
                        </Array>
                    </mxGeometry>
                </mxCell>
                <mxCell id="9" value="" style="endArrow=classic;startArrow=classic;html=1;entryX=1;entryY=0.5;entryDx=0;entryDy=0;exitX=0;exitY=0.5;exitDx=0;exitDy=0;" edge="1" parent="1" source="2" target="5">
                    <mxGeometry width="50" height="50" relative="1" as="geometry">
                        <mxPoint x="560" y="420" as="sourcePoint"/>
                        <mxPoint x="610" y="370" as="targetPoint"/>
                        <Array as="points">
                            <mxPoint x="320" y="414"/>
                            <mxPoint x="320" y="474"/>
                        </Array>
                    </mxGeometry>
                </mxCell>
                <mxCell id="10" value="" style="endArrow=classic;startArrow=classic;html=1;exitX=1;exitY=0.5;exitDx=0;exitDy=0;entryX=0;entryY=0.5;entryDx=0;entryDy=0;" edge="1" parent="1" source="6" target="2">
                    <mxGeometry width="50" height="50" relative="1" as="geometry">
                        <mxPoint x="560" y="420" as="sourcePoint"/>
                        <mxPoint x="610" y="370" as="targetPoint"/>
                        <Array as="points">
                            <mxPoint x="320" y="594"/>
                            <mxPoint x="320" y="414"/>
                        </Array>
                    </mxGeometry>
                </mxCell>
                <mxCell id="13" value="ICOM dPMR&lt;br&gt;(RS232 - MAX232)" style="rounded=0;whiteSpace=wrap;html=1;" vertex="1" parent="1">
                    <mxGeometry x="820" y="384" width="120" height="60" as="geometry"/>
                </mxCell>
                <mxCell id="14" value="" style="endArrow=classic;startArrow=classic;html=1;entryX=0;entryY=0.5;entryDx=0;entryDy=0;exitX=1;exitY=0.5;exitDx=0;exitDy=0;" edge="1" parent="1" source="2" target="13">
                    <mxGeometry width="50" height="50" relative="1" as="geometry">
                        <mxPoint x="560" y="420" as="sourcePoint"/>
                        <mxPoint x="610" y="370" as="targetPoint"/>
                    </mxGeometry>
                </mxCell>
                <mxCell id="15" value="Shift-registers" style="rounded=0;whiteSpace=wrap;html=1;" vertex="1" parent="1">
                    <mxGeometry x="525" y="564" width="120" height="60" as="geometry"/>
                </mxCell>
                <mxCell id="16" value="" style="endArrow=classic;startArrow=classic;html=1;exitX=0.5;exitY=1;exitDx=0;exitDy=0;entryX=0.5;entryY=0;entryDx=0;entryDy=0;" edge="1" parent="1" source="2" target="15">
                    <mxGeometry width="50" height="50" relative="1" as="geometry">
                        <mxPoint x="560" y="420" as="sourcePoint"/>
                        <mxPoint x="610" y="370" as="targetPoint"/>
                    </mxGeometry>
                </mxCell>
                <mxCell id="19" value="Integrated Sensors" style="rounded=0;whiteSpace=wrap;html=1;dashed=1;" vertex="1" parent="1">
                    <mxGeometry x="525" y="204" width="120" height="60" as="geometry"/>
                </mxCell>
                <mxCell id="20" value="" style="endArrow=classic;startArrow=classic;html=1;entryX=0.5;entryY=1;entryDx=0;entryDy=0;exitX=0.5;exitY=0;exitDx=0;exitDy=0;" edge="1" parent="1" source="2" target="19">
                    <mxGeometry width="50" height="50" relative="1" as="geometry">
                        <mxPoint x="560" y="380" as="sourcePoint"/>
                        <mxPoint x="610" y="330" as="targetPoint"/>
                    </mxGeometry>
                </mxCell>
                <mxCell id="21" value="BME280" style="rounded=1;whiteSpace=wrap;html=1;" vertex="1" parent="1">
                    <mxGeometry x="480" y="120" width="85" height="40" as="geometry"/>
                </mxCell>
                <mxCell id="22" value="Protected GPIO" style="rounded=0;whiteSpace=wrap;html=1;" vertex="1" parent="1">
                    <mxGeometry x="70" y="680" width="120" height="60" as="geometry"/>
                </mxCell>
                <mxCell id="23" value="" style="endArrow=classic;startArrow=classic;html=1;exitX=1;exitY=0.5;exitDx=0;exitDy=0;entryX=0.5;entryY=1;entryDx=0;entryDy=0;" edge="1" parent="1" source="22" target="15">
                    <mxGeometry width="50" height="50" relative="1" as="geometry">
                        <mxPoint x="560" y="550" as="sourcePoint"/>
                        <mxPoint x="610" y="500" as="targetPoint"/>
                        <Array as="points">
                            <mxPoint x="585" y="710"/>
                        </Array>
                    </mxGeometry>
                </mxCell>
                <mxCell id="24" value="" style="endArrow=classic;startArrow=classic;html=1;entryX=1;entryY=0.5;entryDx=0;entryDy=0;exitX=0.5;exitY=0;exitDx=0;exitDy=0;" edge="1" parent="1" source="19" target="21">
                    <mxGeometry width="50" height="50" relative="1" as="geometry">
                        <mxPoint x="560" y="390" as="sourcePoint"/>
                        <mxPoint x="610" y="340" as="targetPoint"/>
                        <Array as="points">
                            <mxPoint x="585" y="140"/>
                        </Array>
                    </mxGeometry>
                </mxCell>
            </root>
        </mxGraphModel>
    </diagram>
</mxfile>